<svg xmlns="http://www.w3.org/2000/svg"
  xmlns:xlink="http://www.w3.org/1999/xlink" version="1.1" x="0px" y="0px" viewBox="0 0 100 125" style="enable-background:new 0 0 100 100;" xml:space="preserve">
  <path d="M78.89,50.43c-0.08-14.81-6.45-39.8-24.42-40.61l0,0l-8.43,0.28c0.39-0.03,0.77,0.02,1.16,0.06  c-31.88,1.09-29.6,78.62,1.56,79.66c-0.02,0-0.04,0.01-0.06,0.01l8.43-0.28C72.9,88.71,79.53,64.55,78.89,50.43z M63.59,75.69  c-6.97,13.92-21.54,16.11-30.53,1.28c-8.91-14.52-9.9-37.09-1.91-52.72c7.89-14.89,21.6-15.48,30.54-1.29  C70.79,38.3,71.51,59.77,63.59,75.69z M33.3,25.39c-7.4,13.96-6.57,36.99,1.82,50.28c7.71,12.57,19.6,12,26.33-1.12  c7.4-13.97,6.58-37.01-1.81-50.3C51.93,11.68,40.03,12.27,33.3,25.39z M59.16,73.34c-2.96,5.58-6.76,8.74-10.69,8.88  c-3.89,0.14-7.85-2.67-11.17-7.93c-7.95-12.61-8.74-34.45-1.72-47.7c5.9-11.36,15.12-11.86,21.87-0.97  C65.4,38.24,66.18,60.09,59.16,73.34z"/>
</svg>