<?xml version="1.0" encoding="utf-8"?>
<!-- Generator: Adobe Illustrator 25.2.3, SVG Export Plug-In . SVG Version: 6.00 Build 0)  -->
<svg version="1.1" id="Layer_1" xmlns="http://www.w3.org/2000/svg" xmlns:xlink="http://www.w3.org/1999/xlink" x="0px" y="0px"
	 viewBox="0 0 17.4 21" style="enable-background:new 0 0 17.4 21;" xml:space="preserve">
<style type="text/css">
	.st0{fill-rule:evenodd;clip-rule:evenodd;}
</style>
<desc>Created with Sketch.</desc>
<g>
	<path class="st0" d="M17.4,9.8l-1.6-1.2L13,12.3L10.5,9H6.3l1.5-6.9C7.8,2,8,2,8,2.1v0.4h2V2.1C10,0.9,9.1,0,7.9,0
		C6.9,0,6,0.7,5.8,1.7L4.3,9H2v2h1.9l-1.7,7.9C2.2,19,2,19,2,18.9v-0.4H0v0.4C0,20.1,0.9,21,2.1,21c1,0,1.9-0.7,2.1-1.7L5.9,11h3.6
		l2.1,2.8l0.2,0.2l-3.2,4.2l1.6,1.2l2.8-3.7l2.8,3.7l1.6-1.2L14.2,14L17.4,9.8z"/>
</g>
</svg>
