<?xml version="1.0" encoding="utf-8"?>
<!-- Generator: Adobe Illustrator 25.2.3, SVG Export Plug-In . SVG Version: 6.00 Build 0)  -->
<svg version="1.1" xmlns="http://www.w3.org/2000/svg" xmlns:xlink="http://www.w3.org/1999/xlink" x="0px" y="0px"
	 viewBox="0 0 95 95" style="enable-background:new 0 0 95 95;" xml:space="preserve">
<g id="Layer_2">
</g>
<g id="Layer_1">
	<g>
		<path d="M47.5,0C21.3,0,0,21.3,0,47.5S21.3,95,47.5,95S95,73.7,95,47.5S73.7,0,47.5,0z M47.5,88.9c-22.8,0-41.4-18.6-41.4-41.4
			S24.7,6.1,47.5,6.1s41.4,18.6,41.4,41.4S70.3,88.9,47.5,88.9z"/>
		<path d="M41.1,17.8c0.1,0.6,0.6,1,1.2,0.9l2-0.3c2.3-0.3,4.6-0.3,6.8-0.1l2,0.2c0.6,0.1,1.1-0.4,1.2-0.9l0.4-4
			c0.1-0.6-0.4-1.1-0.9-1.2l-2-0.2c-2.6-0.3-5.4-0.3-8,0l-2.4,0.4c-0.6,0.1-1,0.6-0.9,1.2L41.1,17.8z"/>
		<path d="M18.7,28.6l3.2,2.3c0.5,0.3,1.1,0.2,1.5-0.2l1.2-1.6c1.4-1.8,3-3.5,4.8-4.9L31,23c0.5-0.4,0.5-1,0.2-1.5l-2.5-3.1
			c-0.4-0.5-1-0.5-1.5-0.2l-1.6,1.3c-2.1,1.7-4,3.6-5.7,5.7l-1.4,2C18.2,27.6,18.3,28.3,18.7,28.6z"/>
		<path d="M18.6,52.6l-0.3-2C18,48.3,18,46,18.2,43.8l0.2-2c0.1-0.6-0.4-1.1-0.9-1.2l-4-0.4c-0.6-0.1-1.1,0.4-1.2,0.9l-0.2,2
			c-0.3,2.6-0.3,5.4,0,8l0.4,2.4c0.1,0.6,0.6,1,1.2,0.9l3.9-0.6C18.3,53.7,18.7,53.2,18.6,52.6z"/>
		<path d="M30.7,71.5l-1.6-1.2c-1.8-1.4-3.5-3-4.9-4.8L23,63.9c-0.4-0.5-1-0.5-1.5-0.2l-3,2.6c-0.5,0.4-0.5,1-0.2,1.5l1.2,1.6
			c1.7,2.1,3.6,4,5.7,5.7l1.9,1.4c0.5,0.3,1.1,0.2,1.5-0.2l2.3-3.2C31.3,72.5,31.2,71.8,30.7,71.5z"/>
		<path d="M53.8,77.1c-0.1-0.6-0.6-1-1.2-0.9l-2,0.3c-2.3,0.3-4.6,0.3-6.8,0.1l-2-0.2c-0.6-0.1-1.1,0.4-1.2,0.9l-0.4,4
			c-0.1,0.6,0.4,1.1,0.9,1.2l2,0.2c2.6,0.3,5.4,0.3,8,0l2.4-0.4c0.6-0.1,1-0.6,0.9-1.2L53.8,77.1z"/>
		<path d="M76.2,66.2L73,63.9c-0.5-0.3-1.1-0.2-1.5,0.2l-1.2,1.6c-1.4,1.8-3,3.5-4.8,4.9l-1.6,1.2c-0.5,0.4-0.5,1-0.2,1.5l2.5,3.1
			c0.4,0.5,1,0.5,1.5,0.2l1.6-1.2c2.1-1.7,4-3.6,5.7-5.7l1.4-1.9C76.7,67.2,76.6,66.6,76.2,66.2z"/>
		<path d="M82.6,43.6l-0.4-2.4c-0.1-0.6-0.6-1-1.2-0.9l-3.9,0.6c-0.6,0.1-1,0.6-0.9,1.2l0.3,2c0.3,2.3,0.3,4.6,0.1,6.8l-0.2,2
			c-0.1,0.6,0.4,1.1,0.9,1.2l4,0.4c0.6,0.1,1.1-0.4,1.2-0.9l0.2-2C82.9,49,82.9,46.3,82.6,43.6z"/>
		<path d="M64.2,23.4l1.6,1.2c1.8,1.4,3.5,3,4.9,4.8l1.2,1.6c0.4,0.5,1,0.5,1.5,0.2l3.1-2.5c0.5-0.4,0.5-1,0.2-1.5l-1.3-1.7
			c-1.7-2.1-3.6-4-5.7-5.7l-2-1.3c-0.5-0.3-1.1-0.2-1.5,0.2l-2.3,3.2C63.6,22.4,63.7,23.1,64.2,23.4z"/>
		<g>
			<path d="M59.8,38.6h-8c-0.6,0-1,0.4-1,1v25.3c0,0.6-0.4,1-1,1h-4.7c-0.6,0-1-0.4-1-1V39.6c0-0.6-0.4-1-1-1h-7.9c-0.6,0-1-0.4-1-1
				v-3.5c0-0.6,0.4-1,1-1h24.7c0.6,0,1,0.4,1,1v3.5C60.8,38.2,60.4,38.6,59.8,38.6z"/>
		</g>
	</g>
</g>
</svg>
