<svg xmlns="http://www.w3.org/2000/svg" xmlns:xlink="http://www.w3.org/1999/xlink" version="1.1" x="0px" y="0px" viewBox="0 0 2000 2500" style="enable-background:new 0 0 2000 2000;" xml:space="preserve"><path d="M1945.2,393.9l-170-375.5c-3-6.7-9.2-11.5-16.5-12.9c-7.3-1.3-14.7,1-19.9,6.2l-207,207l-15.1-15.1c-8.8-8.8-23-8.8-31.8,0  l-211.8,211.8c-8.8,8.8-8.8,23,0,31.8l15.1,15.1l-221.8,221.8L958.2,576c-8.8-8.8-23-8.8-31.8,0L528.3,974.1c-8.8,8.8-8.8,23,0,31.8  l77.2,77.2l-480.6,480.6c-8.8,8.8-8.8,23,0,31.8l15.1,15.1l-77.2,77.2c-4.2,4.2-6.6,9.9-6.6,15.9s2.4,11.7,6.6,15.9l274,273.8  c4.4,4.4,10.1,6.6,15.9,6.6c5.8,0,11.5-2.2,15.9-6.6l77.2-77.2l15.1,15.1c4.2,4.2,9.9,6.6,15.9,6.6s11.7-2.4,15.9-6.6l894.5-894.5  c4.2-4.2,6.6-9.9,6.6-15.9c0-6-2.4-11.7-6.6-15.9l-15.1-15.1l35.6-35.6l77.2,77.2c8.8,8.8,23,8.8,31.8,0l118.8-118.7  c4.2-4.2,6.6-9.9,6.6-15.9s-2.4-11.7-6.6-15.9l-77.2-77.2l35.6-35.6l15.1,15.1c4.2,4.2,9.9,6.6,15.9,6.6c6,0,11.7-2.4,15.9-6.6  l211.8-211.8c8.8-8.8,8.8-23,0-31.8l-16.3-16.3L1940.6,419C1947.3,412.4,1949.1,402.4,1945.2,393.9z M942.2,675l35.6,35.6  L663,1025.6L627.4,990L942.2,675z M666.4,1137.1l35.6,35.6l-442.4,442.4l-35.6-35.6L666.4,1137.1z M759.5,1230.2l66.6,66.6  l-442.4,442.4l-66.6-66.6L759.5,1230.2z M352.7,1894.4l-190.8-190.8l35.6-35.6l190.8,190.8L352.7,1894.4z M476.8,1832.3l-35.6-35.6  l442.4-442.4l35.6,35.6L476.8,1832.3z M976.7,1332.4l-252.8-252.8l64.3-64.3l115.1,115.1c1,1,2,1.8,3.2,2.6c6.9,5.6,15.8,9,25.4,9  c22.3,0,40.3-18.1,40.3-40.3c0-8.6-2.7-16.5-7.2-23c-1.1-2.1-2.5-4.1-4.2-5.8L845.7,957.8l66.6-66.6l115.1,115.1  c1.2,1.2,2.6,2.3,4,3.2c7,6,16,9.6,25.9,9.6c22,0,39.8-17.8,39.8-39.8c0-8.6-2.7-16.5-7.3-23c-1.1-2.7-2.8-5.2-4.9-7.4L969.8,833.7  l65.5-65.5l252.8,252.8L976.7,1332.4z M1314.5,932.5l-190.8-190.8l221.8-221.8l190.8,190.8L1314.5,932.5z M1500.8,932.5l-35.6-35.6  l35.6-35.6l35.6,35.6L1500.8,932.5z M1624.9,684.3l-252.8-252.8l128.7-128.7l252.8,252.8L1624.9,684.3z M1831.7,527.9L1831.7,527.9  L1831.7,527.9C1831.8,527.9,1831.8,527.9,1831.7,527.9z M1778.8,465.8l-189.6-189.6l147-147l118.2,261.1L1778.8,465.8z"/><text x="0" y="2015" fill="#000000" font-size="5px" font-weight="bold" font-family="'Helvetica Neue', Helvetica, Arial-Unicode, Arial, Sans-serif">Created by Linker</text><text x="0" y="2020" fill="#000000" font-size="5px" font-weight="bold" font-family="'Helvetica Neue', Helvetica, Arial-Unicode, Arial, Sans-serif">from the Noun Project</text></svg>