<svg xmlns="http://www.w3.org/2000/svg" xmlns:ooo="http://xml.openoffice.org/svg/export" xmlns:xlink="http://www.w3.org/1999/xlink" xmlns:presentation="http://sun.com/xmlns/staroffice/presentation" xmlns:smil="http://www.w3.org/2001/SMIL20/" xmlns:anim="urn:oasis:names:tc:opendocument:xmlns:animation:1.0" version="1.2" viewBox="0 0 2540 3175" preserveAspectRatio="xMidYMid" fill-rule="evenodd" stroke-width="28.222" stroke-linejoin="round" xml:space="preserve" x="0px" y="0px"><defs class="ClipPathGroup"><clipPath id="a" clipPathUnits="userSpaceOnUse"><rect x="0" y="0" width="2540" height="2540"/></clipPath></defs><g class="SlideGroup"><g><g><g class="Slide" clip-path="url(#a)"><g class="Page"><g class="com.sun.star.drawing.ClosedBezierShape"><g><rect class="BoundingBox" stroke="none" fill="none" x="748" y="159" width="1045" height="2222"/><path fill="rgb(0,0,0)" stroke="none" d="M 1630,776 C 1630,788 1633,798 1639,808 1645,817 1652,825 1662,831 1673,837 1682,839 1694,840 1706,839 1716,837 1725,831 1736,825 1743,818 1749,808 1755,797 1757,788 1757,776 L 1758,226 C 1758,225 1758,225 1758,224 1758,212 1755,202 1749,192 1743,183 1735,176 1725,170 1715,164 1704,162 1693,162 1681,162 1671,166 1661,172 1657,175 1654,177 1650,180 L 1589,242 1528,181 C 1523,175 1519,172 1513,169 1503,163 1493,161 1481,162 1469,162 1459,165 1450,171 1445,174 1442,176 1438,180 L 1378,241 1317,180 C 1313,175 1308,171 1302,168 1292,163 1281,160 1269,161 1258,162 1248,164 1239,170 1235,173 1230,175 1227,180 L 1166,240 1105,179 C 1100,174 1096,171 1090,167 1080,162 1070,159 1058,160 1046,160 1036,164 1027,170 1023,172 1018,175 1015,178 L 955,239 894,178 C 889,174 885,170 879,167 869,161 859,158 847,160 835,160 825,163 816,169 806,175 799,183 793,193 787,203 786,212 786,222 L 785,772 C 785,784 788,794 793,805 799,814 806,821 817,828 826,834 836,837 848,837 860,836 870,834 880,827 890,822 897,815 904,805 909,794 911,785 912,772 L 912,377 C 916,380 919,383 924,385 934,390 944,393 956,393 967,392 977,390 987,383 992,381 995,378 998,374 L 1059,313 1102,356 1102,648 C 1101,660 1103,669 1110,679 1116,690 1123,697 1132,703 1143,708 1153,711 1164,711 1176,711 1186,708 1196,703 1206,697 1214,690 1219,680 1226,670 1228,660 1228,648 L 1229,356 1272,314 1314,356 1313,507 C 1314,519 1316,529 1322,538 1328,549 1335,556 1345,562 1356,568 1365,570 1377,570 1389,570 1399,567 1409,562 1419,556 1426,549 1432,539 1438,529 1441,519 1441,507 L 1440,357 1483,315 1544,376 C 1548,381 1552,384 1559,387 1569,393 1579,395 1591,395 1602,394 1612,392 1623,385 1626,383 1628,381 1631,379 L 1630,776 Z M 1788,944 C 1785,935 1781,927 1777,919 1772,912 1767,905 1761,900 1754,893 1748,888 1741,884 1733,879 1725,875 1717,873 1707,869 1698,868 1688,869 L 853,866 C 844,866 834,867 824,870 816,873 808,877 800,881 794,885 787,891 781,897 775,903 770,910 765,916 760,924 757,932 754,941 751,951 749,960 749,971 L 749,1135 C 749,1145 751,1155 753,1164 756,1173 760,1181 765,1189 769,1196 775,1203 781,1209 787,1214 793,1220 800,1225 808,1229 816,1233 824,1236 L 824,1236 C 834,1239 844,1240 854,1241 L 1688,1243 C 1697,1244 1707,1242 1717,1239 1724,1236 1733,1232 1740,1227 1748,1223 1755,1217 1761,1211 1767,1205 1773,1198 1777,1191 1781,1183 1785,1175 1787,1167 1791,1157 1792,1147 1792,1138 L 1792,972 C 1792,963 1790,953 1788,944 Z M 1666,1116 L 876,1114 877,993 1665,995 1666,1116 Z M 910,1325 C 910,1313 907,1303 902,1292 896,1283 889,1276 878,1269 868,1264 858,1262 847,1262 835,1261 825,1263 815,1270 805,1276 797,1283 792,1293 786,1303 783,1313 783,1325 784,1344 785,1364 790,1383 794,1404 803,1423 814,1441 822,1454 831,1465 843,1477 855,1487 868,1497 883,1505 897,1512 913,1518 931,1522 945,1526 959,1527 976,1529 982,1537 985,1549 990,1562 995,1579 1000,1599 1004,1621 1012,1668 1017,1722 1022,1780 1030,1901 1029,2035 1029,2138 1029,2163 1032,2187 1038,2209 1044,2232 1053,2253 1065,2272 1076,2289 1087,2304 1102,2317 1117,2331 1132,2342 1150,2351 1168,2360 1186,2368 1206,2372 1222,2375 1238,2378 1254,2379 1258,2379 1263,2380 1268,2380 1293,2380 1317,2377 1339,2371 1361,2365 1383,2357 1403,2344 1419,2334 1434,2321 1448,2307 1460,2293 1471,2277 1481,2260 1490,2242 1497,2223 1501,2203 1506,2184 1508,2163 1508,2142 1508,2029 1508,1877 1519,1746 1524,1686 1532,1629 1543,1585 1548,1566 1553,1550 1560,1538 1561,1536 1562,1533 1563,1532 1582,1532 1599,1529 1614,1525 1635,1519 1653,1512 1668,1503 1685,1492 1699,1480 1710,1466 1721,1453 1731,1438 1737,1422 1745,1407 1749,1392 1752,1376 1755,1360 1756,1345 1756,1328 1756,1316 1754,1306 1748,1297 1742,1287 1735,1279 1724,1274 1714,1267 1705,1265 1693,1265 1681,1265 1671,1268 1661,1273 1651,1279 1644,1286 1638,1297 1632,1307 1629,1316 1630,1328 1629,1336 1629,1344 1627,1352 1626,1358 1624,1365 1622,1370 1619,1375 1616,1381 1613,1385 1610,1388 1607,1391 1601,1395 1596,1398 1590,1401 1583,1403 1574,1405 1563,1405 1552,1405 1542,1405 1533,1407 1523,1409 1515,1412 1506,1416 1498,1421 1487,1428 1476,1437 1467,1449 1459,1458 1453,1468 1446,1480 1436,1500 1428,1524 1420,1553 1407,1603 1399,1667 1393,1736 1381,1869 1381,2025 1381,2141 L 1381,2142 C 1381,2153 1379,2165 1377,2174 1375,2184 1372,2193 1368,2201 1364,2208 1359,2215 1354,2222 1349,2227 1342,2232 1336,2236 1326,2242 1317,2246 1307,2248 1297,2251 1288,2253 1279,2253 1275,2253 1272,2253 1269,2252 1257,2252 1246,2251 1235,2248 1225,2246 1217,2243 1209,2238 1202,2235 1194,2230 1188,2224 1182,2218 1177,2212 1173,2205 1168,2197 1164,2186 1161,2176 1157,2165 1156,2151 1156,2138 1156,2033 1156,1896 1149,1772 1145,1709 1138,1649 1129,1598 1123,1570 1118,1546 1112,1525 1103,1500 1094,1478 1084,1462 1080,1454 1074,1447 1069,1441 1062,1433 1055,1427 1048,1422 1039,1415 1030,1410 1020,1407 1011,1404 1000,1402 989,1402 979,1401 969,1400 961,1398 954,1397 947,1395 941,1392 937,1389 933,1387 930,1383 926,1381 924,1377 922,1374 918,1367 915,1361 914,1353 912,1344 910,1334 910,1325 Z"/></g></g></g></g></g></g></g><text x="0" y="2555" fill="#000000" font-size="5px" font-weight="bold" font-family="'Helvetica Neue', Helvetica, Arial-Unicode, Arial, Sans-serif">Created by Erik Arndt</text><text x="0" y="2560" fill="#000000" font-size="5px" font-weight="bold" font-family="'Helvetica Neue', Helvetica, Arial-Unicode, Arial, Sans-serif">from the Noun Project</text></svg>